# xmcd
#
# Track frame offsets: 
#        150
#        10452
#        16622
#        28496
#        39375
#        49728
#        58410
#        70841
#        80401
#        89839
#        101092
#        110126
#        120709
#        129889
#        138532
#        144139
#        150019
#        154207
#        160234
#        170037
#        178991
#        185543
#        194528
#        210188
#        218812
#        225102
#        235758
#        244984
#
# Disc length: 3363 seconds
#
# Revision: 0
# Processed by: cddbd v1.5.2PL0 Copyright (c) Steve Scherf et al.
# Submitted via: ExactAudioCopy v0.95b3
#
DISCID=860d211c
DTITLE=Buddy Holly  - Down the Line  The Rarities CD 1
DYEAR=1900
DGENRE=
TTITLE0=My Two-Timin' Woman
TTITLE1=Footprints in the Snow
TTITLE2=Flower of My Heart
TTITLE3=Door to My Heart
TTITLE4=Soft Place in My Heart
TTITLE5=Gotta Get You Near Me Blues
TTITLE6=I Gambled My Heart
TTITLE7=You and I Are Through
TTITLE8=Down the Line
TTITLE9=Baby. Let's Play House
TTITLE10=Moonlight Baby (Baby. Won't You Come out Tonight)
TTITLE11=I Guess I Was Just a Fool
TTITLE12=Don't Come Back Knockin
TTITLE13=Love Me
TTITLE14=Gone
TTITLE15=Gone (Alternate Take)
TTITLE16=Have You Ever Been Lonely (Alternate Take)
TTITLE17=Have You Ever Been Lonely
TTITLE18=Brown-Eyed Handsome Man
TTITLE19=Good Rockin' Tonight
TTITLE20=Rip It Up
TTITLE21=Blue Monday
TTITLE22=Honky Tonk
TTITLE23=Blue Suede Shoes
TTITLE24=Shake Rattle and Roll (Partial)
TTITLE25=Bo Diddley
TTITLE26=Ain't Got No Home
TTITLE27=Holly Hop
EXTD=
EXTT0=
EXTT1=
EXTT2=
EXTT3=
EXTT4=
EXTT5=
EXTT6=
EXTT7=
EXTT8=
EXTT9=
EXTT10=
EXTT11=
EXTT12=
EXTT13=
EXTT14=
EXTT15=
EXTT16=
EXTT17=
EXTT18=
EXTT19=
EXTT20=
EXTT21=
EXTT22=
EXTT23=
EXTT24=
EXTT25=
EXTT26=
EXTT27=
PLAYORDER=
